<?xml version="1.0" encoding="UTF-8" standalone="no"?>
<!DOCTYPE svg PUBLIC "-//W3C//DTD SVG 1.1//EN"
 "http://www.w3.org/Graphics/SVG/1.1/DTD/svg11.dtd">
<!-- Generated by graphviz version 8.0.5 (20230506.1012)
 -->
<!-- Pages: 1 -->
<svg width="1052pt" height="548pt"
 viewBox="0.00 0.00 1052.50 548.00" xmlns="http://www.w3.org/2000/svg" xmlns:xlink="http://www.w3.org/1999/xlink">
<g id="graph0" class="graph" transform="scale(1 1) rotate(0) translate(4 544)">
<polygon fill="white" stroke="none" points="-4,4 -4,-544 1048.5,-544 1048.5,4 -4,4"/>
<!-- 1430918e&#45;ade9&#45;4217&#45;8027&#45;1ede1f79801a -->
<g id="node1" class="node">
<title>1430918e&#45;ade9&#45;4217&#45;8027&#45;1ede1f79801a</title>
<ellipse fill="none" stroke="black" cx="206.44" cy="-378" rx="70.8" ry="18"/>
<text text-anchor="middle" x="206.44" y="-372.95" font-family="Times,serif" font-size="14.00">read.read_cubes</text>
</g>
<!-- 26a40801&#45;667a&#45;4eb4&#45;9cb2&#45;0b524a83072a -->
<g id="node4" class="node">
<title>26a40801&#45;667a&#45;4eb4&#45;9cb2&#45;0b524a83072a</title>
<ellipse fill="none" stroke="black" cx="98.44" cy="-162" rx="78.48" ry="18"/>
<text text-anchor="middle" x="98.44" y="-156.95" font-family="Times,serif" font-size="14.00">filters.filter_cubes</text>
</g>
<!-- 1430918e&#45;ade9&#45;4217&#45;8027&#45;1ede1f79801a&#45;&gt;26a40801&#45;667a&#45;4eb4&#45;9cb2&#45;0b524a83072a -->
<g id="edge3" class="edge">
<title>1430918e&#45;ade9&#45;4217&#45;8027&#45;1ede1f79801a&#45;&gt;26a40801&#45;667a&#45;4eb4&#45;9cb2&#45;0b524a83072a</title>
<path fill="none" stroke="black" d="M137.27,-373.97C101.34,-368.45 60.28,-355.1 37.44,-324 6.28,-281.58 46.84,-221.35 75.2,-187.87"/>
<polygon fill="black" stroke="black" points="78.17,-190.8 82.1,-180.97 72.89,-186.2 78.17,-190.8"/>
</g>
<!-- 94a7f810&#45;d915&#45;424f&#45;8980&#45;2fe04bfb5acf -->
<g id="node5" class="node">
<title>94a7f810&#45;d915&#45;424f&#45;8980&#45;2fe04bfb5acf</title>
<ellipse fill="none" stroke="black" cx="206.44" cy="-234" rx="130.17" ry="18"/>
<text text-anchor="middle" x="206.44" y="-228.95" font-family="Times,serif" font-size="14.00">constraints.combine_constraints</text>
</g>
<!-- 1430918e&#45;ade9&#45;4217&#45;8027&#45;1ede1f79801a&#45;&gt;94a7f810&#45;d915&#45;424f&#45;8980&#45;2fe04bfb5acf -->
<g id="edge4" class="edge">
<title>1430918e&#45;ade9&#45;4217&#45;8027&#45;1ede1f79801a&#45;&gt;94a7f810&#45;d915&#45;424f&#45;8980&#45;2fe04bfb5acf</title>
<path fill="none" stroke="black" d="M138.83,-372.19C105.9,-366.03 69.05,-352.65 48.44,-324 23.08,-288.75 70.92,-265.64 120.44,-251.83"/>
<polygon fill="black" stroke="black" points="121.24,-254.98 130.01,-249.03 119.44,-248.21 121.24,-254.98"/>
</g>
<!-- 91f804d3&#45;d165&#45;43f4&#45;a8c1&#45;dc4d6b61454b -->
<g id="node6" class="node">
<title>91f804d3&#45;d165&#45;43f4&#45;a8c1&#45;dc4d6b61454b</title>
<ellipse fill="none" stroke="black" cx="206.44" cy="-306" rx="148.59" ry="18"/>
<text text-anchor="middle" x="206.44" y="-300.95" font-family="Times,serif" font-size="14.00">constraints.generate_stash_constraint</text>
</g>
<!-- 1430918e&#45;ade9&#45;4217&#45;8027&#45;1ede1f79801a&#45;&gt;91f804d3&#45;d165&#45;43f4&#45;a8c1&#45;dc4d6b61454b -->
<g id="edge5" class="edge">
<title>1430918e&#45;ade9&#45;4217&#45;8027&#45;1ede1f79801a&#45;&gt;91f804d3&#45;d165&#45;43f4&#45;a8c1&#45;dc4d6b61454b</title>
<path fill="none" stroke="black" d="M206.44,-359.7C206.44,-352.24 206.44,-343.32 206.44,-334.97"/>
<polygon fill="black" stroke="black" points="209.94,-335.1 206.44,-325.1 202.94,-335.1 209.94,-335.1"/>
</g>
<!-- 3c2fbd36&#45;2966&#45;46bf&#45;a092&#45;6bf68f877a84 -->
<g id="node7" class="node">
<title>3c2fbd36&#45;2966&#45;46bf&#45;a092&#45;6bf68f877a84</title>
<ellipse fill="none" stroke="black" cx="552.44" cy="-306" rx="179.82" ry="18"/>
<text text-anchor="middle" x="552.44" y="-300.95" font-family="Times,serif" font-size="14.00">constraints.generate_cell_methods_constraint</text>
</g>
<!-- 1430918e&#45;ade9&#45;4217&#45;8027&#45;1ede1f79801a&#45;&gt;3c2fbd36&#45;2966&#45;46bf&#45;a092&#45;6bf68f877a84 -->
<g id="edge6" class="edge">
<title>1430918e&#45;ade9&#45;4217&#45;8027&#45;1ede1f79801a&#45;&gt;3c2fbd36&#45;2966&#45;46bf&#45;a092&#45;6bf68f877a84</title>
<path fill="none" stroke="black" d="M260.5,-366.06C315.05,-355.03 400.19,-337.8 464.47,-324.8"/>
<polygon fill="black" stroke="black" points="464.9,-328.08 474,-322.67 463.51,-321.22 464.9,-328.08"/>
</g>
<!-- 5d719c69&#45;10a0&#45;4b14&#45;8f59&#45;e7f9d4faceb4 -->
<g id="node8" class="node">
<title>5d719c69&#45;10a0&#45;4b14&#45;8f59&#45;e7f9d4faceb4</title>
<ellipse fill="none" stroke="black" cx="897.44" cy="-306" rx="147.06" ry="18"/>
<text text-anchor="middle" x="897.44" y="-300.95" font-family="Times,serif" font-size="14.00">constraints.generate_time_constraint</text>
</g>
<!-- 1430918e&#45;ade9&#45;4217&#45;8027&#45;1ede1f79801a&#45;&gt;5d719c69&#45;10a0&#45;4b14&#45;8f59&#45;e7f9d4faceb4 -->
<g id="edge7" class="edge">
<title>1430918e&#45;ade9&#45;4217&#45;8027&#45;1ede1f79801a&#45;&gt;5d719c69&#45;10a0&#45;4b14&#45;8f59&#45;e7f9d4faceb4</title>
<path fill="none" stroke="black" d="M271.93,-370.72C372.8,-361 572.24,-341.6 741.44,-324 753.93,-322.7 766.98,-321.32 779.98,-319.92"/>
<polygon fill="black" stroke="black" points="780.31,-323.3 789.88,-318.75 779.56,-316.34 780.31,-323.3"/>
</g>
<!-- START -->
<g id="node2" class="node">
<title>START</title>
<ellipse fill="none" stroke="black" cx="206.44" cy="-522" rx="40.09" ry="18"/>
<text text-anchor="middle" x="206.44" y="-516.95" font-family="Times,serif" font-size="14.00">START</text>
</g>
<!-- START&#45;&gt;1430918e&#45;ade9&#45;4217&#45;8027&#45;1ede1f79801a -->
<g id="edge1" class="edge">
<title>START&#45;&gt;1430918e&#45;ade9&#45;4217&#45;8027&#45;1ede1f79801a</title>
<path fill="none" stroke="black" d="M179.76,-508.33C164.32,-499.42 146.25,-485.88 137.44,-468 130.36,-453.65 130.36,-446.35 137.44,-432 143.71,-419.28 154.66,-408.76 166.02,-400.54"/>
<polygon fill="black" stroke="black" points="167.77,-402.91 174.13,-394.44 163.87,-397.09 167.77,-402.91"/>
</g>
<!-- 8eef2b84&#45;4812&#45;43a4&#45;aeab&#45;8862e5743c1e -->
<g id="node3" class="node">
<title>8eef2b84&#45;4812&#45;43a4&#45;aeab&#45;8862e5743c1e</title>
<ellipse fill="none" stroke="black" cx="295.44" cy="-450" rx="148.59" ry="18"/>
<text text-anchor="middle" x="295.44" y="-444.95" font-family="Times,serif" font-size="14.00">constraints.generate_stash_constraint</text>
</g>
<!-- START&#45;&gt;8eef2b84&#45;4812&#45;43a4&#45;aeab&#45;8862e5743c1e -->
<g id="edge2" class="edge">
<title>START&#45;&gt;8eef2b84&#45;4812&#45;43a4&#45;aeab&#45;8862e5743c1e</title>
<path fill="none" stroke="black" d="M225.75,-505.81C237.32,-496.71 252.29,-484.94 265.38,-474.64"/>
<polygon fill="black" stroke="black" points="266.97,-477.06 272.66,-468.13 262.64,-471.56 266.97,-477.06"/>
</g>
<!-- 8eef2b84&#45;4812&#45;43a4&#45;aeab&#45;8862e5743c1e&#45;&gt;1430918e&#45;ade9&#45;4217&#45;8027&#45;1ede1f79801a -->
<g id="edge8" class="edge">
<title>8eef2b84&#45;4812&#45;43a4&#45;aeab&#45;8862e5743c1e&#45;&gt;1430918e&#45;ade9&#45;4217&#45;8027&#45;1ede1f79801a</title>
<path fill="none" stroke="black" d="M273.89,-432.05C262.55,-423.13 248.47,-412.06 236.11,-402.34"/>
<polygon fill="black" stroke="black" points="238.5,-398.98 228.48,-395.55 234.17,-404.48 238.5,-398.98"/>
</g>
<!-- a23a5874&#45;5258&#45;48ac&#45;b78b&#45;4ded3eebfb8f -->
<g id="node9" class="node">
<title>a23a5874&#45;5258&#45;48ac&#45;b78b&#45;4ded3eebfb8f</title>
<ellipse fill="none" stroke="black" cx="98.44" cy="-18" rx="98.44" ry="18"/>
<text text-anchor="middle" x="98.44" y="-12.95" font-family="Times,serif" font-size="14.00">write.write_cube_to_nc</text>
</g>
<!-- 26a40801&#45;667a&#45;4eb4&#45;9cb2&#45;0b524a83072a&#45;&gt;a23a5874&#45;5258&#45;48ac&#45;b78b&#45;4ded3eebfb8f -->
<g id="edge9" class="edge">
<title>26a40801&#45;667a&#45;4eb4&#45;9cb2&#45;0b524a83072a&#45;&gt;a23a5874&#45;5258&#45;48ac&#45;b78b&#45;4ded3eebfb8f</title>
<path fill="none" stroke="black" d="M77.66,-144.17C67.69,-134.72 56.76,-122.03 51.44,-108 45.76,-93.04 45.76,-86.96 51.44,-72 55.43,-61.48 62.57,-51.71 70.1,-43.5"/>
<polygon fill="black" stroke="black" points="72.13,-46.41 76.66,-36.83 67.15,-41.49 72.13,-46.41"/>
</g>
<!-- ed263455&#45;f401&#45;4031&#45;95e0&#45;cc846dd35d78 -->
<g id="node10" class="node">
<title>ed263455&#45;f401&#45;4031&#45;95e0&#45;cc846dd35d78</title>
<ellipse fill="none" stroke="black" cx="164.44" cy="-90" rx="103.56" ry="18"/>
<text text-anchor="middle" x="164.44" y="-84.95" font-family="Times,serif" font-size="14.00">plot.spatial_contour_plot</text>
</g>
<!-- 26a40801&#45;667a&#45;4eb4&#45;9cb2&#45;0b524a83072a&#45;&gt;ed263455&#45;f401&#45;4031&#45;95e0&#45;cc846dd35d78 -->
<g id="edge10" class="edge">
<title>26a40801&#45;667a&#45;4eb4&#45;9cb2&#45;0b524a83072a&#45;&gt;ed263455&#45;f401&#45;4031&#45;95e0&#45;cc846dd35d78</title>
<path fill="none" stroke="black" d="M114.41,-144.05C122.44,-135.54 132.32,-125.07 141.17,-115.68"/>
<polygon fill="black" stroke="black" points="143.29,-118.47 147.61,-108.79 138.2,-113.66 143.29,-118.47"/>
</g>
<!-- 94a7f810&#45;d915&#45;424f&#45;8980&#45;2fe04bfb5acf&#45;&gt;26a40801&#45;667a&#45;4eb4&#45;9cb2&#45;0b524a83072a -->
<g id="edge11" class="edge">
<title>94a7f810&#45;d915&#45;424f&#45;8980&#45;2fe04bfb5acf&#45;&gt;26a40801&#45;667a&#45;4eb4&#45;9cb2&#45;0b524a83072a</title>
<path fill="none" stroke="black" d="M180.29,-216.05C166.03,-206.81 148.18,-195.24 132.8,-185.27"/>
<polygon fill="black" stroke="black" points="134.89,-181.81 124.6,-179.31 131.09,-187.68 134.89,-181.81"/>
</g>
<!-- 91f804d3&#45;d165&#45;43f4&#45;a8c1&#45;dc4d6b61454b&#45;&gt;94a7f810&#45;d915&#45;424f&#45;8980&#45;2fe04bfb5acf -->
<g id="edge12" class="edge">
<title>91f804d3&#45;d165&#45;43f4&#45;a8c1&#45;dc4d6b61454b&#45;&gt;94a7f810&#45;d915&#45;424f&#45;8980&#45;2fe04bfb5acf</title>
<path fill="none" stroke="black" d="M206.44,-287.7C206.44,-280.24 206.44,-271.32 206.44,-262.97"/>
<polygon fill="black" stroke="black" points="209.94,-263.1 206.44,-253.1 202.94,-263.1 209.94,-263.1"/>
</g>
<!-- 3c2fbd36&#45;2966&#45;46bf&#45;a092&#45;6bf68f877a84&#45;&gt;94a7f810&#45;d915&#45;424f&#45;8980&#45;2fe04bfb5acf -->
<g id="edge13" class="edge">
<title>3c2fbd36&#45;2966&#45;46bf&#45;a092&#45;6bf68f877a84&#45;&gt;94a7f810&#45;d915&#45;424f&#45;8980&#45;2fe04bfb5acf</title>
<path fill="none" stroke="black" d="M475.22,-289.38C419.74,-278.15 345.07,-263.05 288.52,-251.61"/>
<polygon fill="black" stroke="black" points="289.31,-247.99 278.82,-249.44 287.93,-254.85 289.31,-247.99"/>
</g>
<!-- 5d719c69&#45;10a0&#45;4b14&#45;8f59&#45;e7f9d4faceb4&#45;&gt;94a7f810&#45;d915&#45;424f&#45;8980&#45;2fe04bfb5acf -->
<g id="edge14" class="edge">
<title>5d719c69&#45;10a0&#45;4b14&#45;8f59&#45;e7f9d4faceb4&#45;&gt;94a7f810&#45;d915&#45;424f&#45;8980&#45;2fe04bfb5acf</title>
<path fill="none" stroke="black" d="M790.88,-293.25C774.33,-291.46 757.43,-289.66 741.44,-288 596.79,-272.95 430.03,-256.59 321.66,-246.09"/>
<polygon fill="black" stroke="black" points="322.32,-242.54 312.03,-245.06 321.65,-249.5 322.32,-242.54"/>
</g>
<!-- ed263455&#45;f401&#45;4031&#45;95e0&#45;cc846dd35d78&#45;&gt;a23a5874&#45;5258&#45;48ac&#45;b78b&#45;4ded3eebfb8f -->
<g id="edge15" class="edge">
<title>ed263455&#45;f401&#45;4031&#45;95e0&#45;cc846dd35d78&#45;&gt;a23a5874&#45;5258&#45;48ac&#45;b78b&#45;4ded3eebfb8f</title>
<path fill="none" stroke="black" d="M148.46,-72.05C140.44,-63.54 130.56,-53.07 121.71,-43.68"/>
<polygon fill="black" stroke="black" points="124.67,-41.66 115.27,-36.79 119.58,-46.47 124.67,-41.66"/>
</g>
</g>
</svg>
