<?xml version="1.0" encoding="UTF-8" standalone="no"?>
<!DOCTYPE svg PUBLIC "-//W3C//DTD SVG 1.1//EN"
 "http://www.w3.org/Graphics/SVG/1.1/DTD/svg11.dtd">
<!-- Generated by graphviz version 12.0.0 (20240803.0821)
 -->
<!-- Pages: 1 -->
<svg width="776pt" height="476pt"
 viewBox="0.00 0.00 775.73 476.00" xmlns="http://www.w3.org/2000/svg" xmlns:xlink="http://www.w3.org/1999/xlink">
<g id="graph0" class="graph" transform="scale(1 1) rotate(0) translate(4 472)">
<polygon fill="white" stroke="none" points="-4,4 -4,-472 771.73,-472 771.73,4 -4,4"/>
<!-- 2d30a500&#45;cd2f&#45;423e&#45;9b71&#45;16fda2234267 -->
<g id="node1" class="node">
<title>2d30a500&#45;cd2f&#45;423e&#45;9b71&#45;16fda2234267</title>
<ellipse fill="none" stroke="black" cx="162.91" cy="-378" rx="70.8" ry="18"/>
<text text-anchor="middle" x="162.91" y="-372.95" font-family="Times,serif" font-size="14.00">read.read_cubes</text>
</g>
<!-- fd3e51f5&#45;09f3&#45;432e&#45;843a&#45;64038e1c2ead -->
<g id="node3" class="node">
<title>fd3e51f5&#45;09f3&#45;432e&#45;843a&#45;64038e1c2ead</title>
<ellipse fill="none" stroke="black" cx="118.91" cy="-162" rx="78.48" ry="18"/>
<text text-anchor="middle" x="118.91" y="-156.95" font-family="Times,serif" font-size="14.00">filters.filter_cubes</text>
</g>
<!-- 2d30a500&#45;cd2f&#45;423e&#45;9b71&#45;16fda2234267&#45;&gt;fd3e51f5&#45;09f3&#45;432e&#45;843a&#45;64038e1c2ead -->
<g id="edge2" class="edge">
<title>2d30a500&#45;cd2f&#45;423e&#45;9b71&#45;16fda2234267&#45;&gt;fd3e51f5&#45;09f3&#45;432e&#45;843a&#45;64038e1c2ead</title>
<path fill="none" stroke="black" d="M128.97,-361.75C113.67,-353.01 97.02,-340.46 87.91,-324 64.65,-281.98 70.09,-262 83.91,-216 86.75,-206.54 91.89,-197.21 97.37,-189.08"/>
<polygon fill="black" stroke="black" points="100.16,-191.2 103.2,-181.05 94.49,-187.08 100.16,-191.2"/>
</g>
<!-- 7373e45f&#45;e64a&#45;499f&#45;930a&#45;f620387a0c50 -->
<g id="node4" class="node">
<title>7373e45f&#45;e64a&#45;499f&#45;930a&#45;f620387a0c50</title>
<ellipse fill="none" stroke="black" cx="222.91" cy="-234" rx="130.17" ry="18"/>
<text text-anchor="middle" x="222.91" y="-228.95" font-family="Times,serif" font-size="14.00">constraints.combine_constraints</text>
</g>
<!-- 2d30a500&#45;cd2f&#45;423e&#45;9b71&#45;16fda2234267&#45;&gt;7373e45f&#45;e64a&#45;499f&#45;930a&#45;f620387a0c50 -->
<g id="edge3" class="edge">
<title>2d30a500&#45;cd2f&#45;423e&#45;9b71&#45;16fda2234267&#45;&gt;7373e45f&#45;e64a&#45;499f&#45;930a&#45;f620387a0c50</title>
<path fill="none" stroke="black" d="M132.93,-361.26C119.26,-352.33 104.47,-339.77 96.91,-324 89.99,-309.57 88.06,-301.33 96.91,-288 107.28,-272.38 123.25,-261.36 140.38,-253.58"/>
<polygon fill="black" stroke="black" points="141.26,-257 149.16,-249.94 138.58,-250.53 141.26,-257"/>
</g>
<!-- 91e18a27&#45;b9fe&#45;4a7c&#45;88ec&#45;06e3601567dc -->
<g id="node5" class="node">
<title>91e18a27&#45;b9fe&#45;4a7c&#45;88ec&#45;06e3601567dc</title>
<ellipse fill="none" stroke="black" cx="247.91" cy="-306" rx="141.94" ry="18"/>
<text text-anchor="middle" x="247.91" y="-300.95" font-family="Times,serif" font-size="14.00">constraints.generate_var_constraint</text>
</g>
<!-- 2d30a500&#45;cd2f&#45;423e&#45;9b71&#45;16fda2234267&#45;&gt;91e18a27&#45;b9fe&#45;4a7c&#45;88ec&#45;06e3601567dc -->
<g id="edge4" class="edge">
<title>2d30a500&#45;cd2f&#45;423e&#45;9b71&#45;16fda2234267&#45;&gt;91e18a27&#45;b9fe&#45;4a7c&#45;88ec&#45;06e3601567dc</title>
<path fill="none" stroke="black" d="M183.05,-360.41C193.62,-351.71 206.75,-340.89 218.44,-331.27"/>
<polygon fill="black" stroke="black" points="220.36,-334.22 225.85,-325.16 215.91,-328.82 220.36,-334.22"/>
</g>
<!-- d011cf16&#45;6a19&#45;4a74&#45;a21a&#45;2db0b3e7aca9 -->
<g id="node6" class="node">
<title>d011cf16&#45;6a19&#45;4a74&#45;a21a&#45;2db0b3e7aca9</title>
<ellipse fill="none" stroke="black" cx="587.91" cy="-306" rx="179.82" ry="18"/>
<text text-anchor="middle" x="587.91" y="-300.95" font-family="Times,serif" font-size="14.00">constraints.generate_cell_methods_constraint</text>
</g>
<!-- 2d30a500&#45;cd2f&#45;423e&#45;9b71&#45;16fda2234267&#45;&gt;d011cf16&#45;6a19&#45;4a74&#45;a21a&#45;2db0b3e7aca9 -->
<g id="edge5" class="edge">
<title>2d30a500&#45;cd2f&#45;423e&#45;9b71&#45;16fda2234267&#45;&gt;d011cf16&#45;6a19&#45;4a74&#45;a21a&#45;2db0b3e7aca9</title>
<path fill="none" stroke="black" d="M221.11,-367.41C289.14,-356.21 402.95,-337.46 485.78,-323.82"/>
<polygon fill="black" stroke="black" points="486.21,-327.3 495.51,-322.22 485.07,-320.39 486.21,-327.3"/>
</g>
<!-- START -->
<g id="node2" class="node">
<title>START</title>
<ellipse fill="none" stroke="black" cx="162.91" cy="-450" rx="40.09" ry="18"/>
<text text-anchor="middle" x="162.91" y="-444.95" font-family="Times,serif" font-size="14.00">START</text>
</g>
<!-- START&#45;&gt;2d30a500&#45;cd2f&#45;423e&#45;9b71&#45;16fda2234267 -->
<g id="edge1" class="edge">
<title>START&#45;&gt;2d30a500&#45;cd2f&#45;423e&#45;9b71&#45;16fda2234267</title>
<path fill="none" stroke="black" d="M162.91,-431.7C162.91,-424.41 162.91,-415.73 162.91,-407.54"/>
<polygon fill="black" stroke="black" points="166.41,-407.62 162.91,-397.62 159.41,-407.62 166.41,-407.62"/>
</g>
<!-- 1fd09a47&#45;1fc5&#45;46b2&#45;8aa9&#45;388f0dbd0dd2 -->
<g id="node7" class="node">
<title>1fd09a47&#45;1fc5&#45;46b2&#45;8aa9&#45;388f0dbd0dd2</title>
<ellipse fill="none" stroke="black" cx="118.91" cy="-90" rx="118.91" ry="18"/>
<text text-anchor="middle" x="118.91" y="-84.95" font-family="Times,serif" font-size="14.00">plot.spatial_pcolormesh_plot</text>
</g>
<!-- fd3e51f5&#45;09f3&#45;432e&#45;843a&#45;64038e1c2ead&#45;&gt;1fd09a47&#45;1fc5&#45;46b2&#45;8aa9&#45;388f0dbd0dd2 -->
<g id="edge6" class="edge">
<title>fd3e51f5&#45;09f3&#45;432e&#45;843a&#45;64038e1c2ead&#45;&gt;1fd09a47&#45;1fc5&#45;46b2&#45;8aa9&#45;388f0dbd0dd2</title>
<path fill="none" stroke="black" d="M118.91,-143.7C118.91,-136.41 118.91,-127.73 118.91,-119.54"/>
<polygon fill="black" stroke="black" points="122.41,-119.62 118.91,-109.62 115.41,-119.62 122.41,-119.62"/>
</g>
<!-- 7373e45f&#45;e64a&#45;499f&#45;930a&#45;f620387a0c50&#45;&gt;fd3e51f5&#45;09f3&#45;432e&#45;843a&#45;64038e1c2ead -->
<g id="edge7" class="edge">
<title>7373e45f&#45;e64a&#45;499f&#45;930a&#45;f620387a0c50&#45;&gt;fd3e51f5&#45;09f3&#45;432e&#45;843a&#45;64038e1c2ead</title>
<path fill="none" stroke="black" d="M197.47,-215.88C183.95,-206.78 167.16,-195.48 152.58,-185.66"/>
<polygon fill="black" stroke="black" points="154.88,-182.99 144.63,-180.31 150.97,-188.8 154.88,-182.99"/>
</g>
<!-- 91e18a27&#45;b9fe&#45;4a7c&#45;88ec&#45;06e3601567dc&#45;&gt;7373e45f&#45;e64a&#45;499f&#45;930a&#45;f620387a0c50 -->
<g id="edge8" class="edge">
<title>91e18a27&#45;b9fe&#45;4a7c&#45;88ec&#45;06e3601567dc&#45;&gt;7373e45f&#45;e64a&#45;499f&#45;930a&#45;f620387a0c50</title>
<path fill="none" stroke="black" d="M241.73,-287.7C239.04,-280.15 235.81,-271.12 232.8,-262.68"/>
<polygon fill="black" stroke="black" points="236.19,-261.77 229.53,-253.53 229.6,-264.12 236.19,-261.77"/>
</g>
<!-- d011cf16&#45;6a19&#45;4a74&#45;a21a&#45;2db0b3e7aca9&#45;&gt;7373e45f&#45;e64a&#45;499f&#45;930a&#45;f620387a0c50 -->
<g id="edge9" class="edge">
<title>d011cf16&#45;6a19&#45;4a74&#45;a21a&#45;2db0b3e7aca9&#45;&gt;7373e45f&#45;e64a&#45;499f&#45;930a&#45;f620387a0c50</title>
<path fill="none" stroke="black" d="M507.36,-289.55C448.26,-278.22 368.17,-262.86 308.03,-251.32"/>
<polygon fill="black" stroke="black" points="309.01,-247.95 298.53,-249.5 307.69,-254.82 309.01,-247.95"/>
</g>
<!-- 2c736e22&#45;5490&#45;46dc&#45;8d34&#45;3684dbb58ba9 -->
<g id="node8" class="node">
<title>2c736e22&#45;5490&#45;46dc&#45;8d34&#45;3684dbb58ba9</title>
<ellipse fill="none" stroke="black" cx="118.91" cy="-18" rx="98.44" ry="18"/>
<text text-anchor="middle" x="118.91" y="-12.95" font-family="Times,serif" font-size="14.00">write.write_cube_to_nc</text>
</g>
<!-- 1fd09a47&#45;1fc5&#45;46b2&#45;8aa9&#45;388f0dbd0dd2&#45;&gt;2c736e22&#45;5490&#45;46dc&#45;8d34&#45;3684dbb58ba9 -->
<g id="edge10" class="edge">
<title>1fd09a47&#45;1fc5&#45;46b2&#45;8aa9&#45;388f0dbd0dd2&#45;&gt;2c736e22&#45;5490&#45;46dc&#45;8d34&#45;3684dbb58ba9</title>
<path fill="none" stroke="black" d="M118.91,-71.7C118.91,-64.41 118.91,-55.73 118.91,-47.54"/>
<polygon fill="black" stroke="black" points="122.41,-47.62 118.91,-37.62 115.41,-47.62 122.41,-47.62"/>
</g>
</g>
</svg>
