<?xml version="1.0" encoding="UTF-8" standalone="no"?>
<!DOCTYPE svg PUBLIC "-//W3C//DTD SVG 1.1//EN"
 "http://www.w3.org/Graphics/SVG/1.1/DTD/svg11.dtd">
<!-- Generated by graphviz version 8.1.0 (20230707.2238)
 -->
<!-- Pages: 1 -->
<svg width="850pt" height="753pt"
 viewBox="0.00 0.00 849.95 753.25" xmlns="http://www.w3.org/2000/svg" xmlns:xlink="http://www.w3.org/1999/xlink">
<g id="graph0" class="graph" transform="scale(1 1) rotate(0) translate(4 749.25)">
<polygon fill="white" stroke="none" points="-4,4 -4,-749.25 845.95,-749.25 845.95,4 -4,4"/>
<!-- 0ea71716&#45;f3ff&#45;43be&#45;b23c&#45;43b6d9d1972a -->
<g id="node1" class="node">
<title>0ea71716&#45;f3ff&#45;43be&#45;b23c&#45;43b6d9d1972a</title>
<ellipse fill="none" stroke="black" cx="206.62" cy="-561.27" rx="70.8" ry="18"/>
<text text-anchor="middle" x="206.62" y="-556.22" font-family="Times,serif" font-size="14.00">read.read_cubes</text>
</g>
<!-- c1be712d&#45;e343&#45;4b0f&#45;956a&#45;7d2427a4c17d -->
<g id="node4" class="node">
<title>c1be712d&#45;e343&#45;4b0f&#45;956a&#45;7d2427a4c17d</title>
<ellipse fill="none" stroke="black" cx="156.62" cy="-323.28" rx="78.48" ry="18"/>
<text text-anchor="middle" x="156.62" y="-318.23" font-family="Times,serif" font-size="14.00">filters.filter_cubes</text>
</g>
<!-- 0ea71716&#45;f3ff&#45;43be&#45;b23c&#45;43b6d9d1972a&#45;&gt;c1be712d&#45;e343&#45;4b0f&#45;956a&#45;7d2427a4c17d -->
<g id="edge3" class="edge">
<title>0ea71716&#45;f3ff&#45;43be&#45;b23c&#45;43b6d9d1972a&#45;&gt;c1be712d&#45;e343&#45;4b0f&#45;956a&#45;7d2427a4c17d</title>
<path fill="none" stroke="black" d="M167.39,-546.09C150.1,-537.66 131.5,-525.06 121.62,-507.27 93.56,-456.7 110.98,-432.67 127.62,-377.28 130.37,-368.14 134.83,-358.8 139.44,-350.56"/>
<polygon fill="black" stroke="black" points="142.93,-352.53 145.02,-342.14 136.91,-348.96 142.93,-352.53"/>
</g>
<!-- 7ef64587&#45;30ed&#45;42f2&#45;bdee&#45;376c53d42ffc -->
<g id="node5" class="node">
<title>7ef64587&#45;30ed&#45;42f2&#45;bdee&#45;376c53d42ffc</title>
<ellipse fill="none" stroke="black" cx="266.62" cy="-395.28" rx="130.17" ry="18"/>
<text text-anchor="middle" x="266.62" y="-390.23" font-family="Times,serif" font-size="14.00">constraints.combine_constraints</text>
</g>
<!-- 0ea71716&#45;f3ff&#45;43be&#45;b23c&#45;43b6d9d1972a&#45;&gt;7ef64587&#45;30ed&#45;42f2&#45;bdee&#45;376c53d42ffc -->
<g id="edge4" class="edge">
<title>0ea71716&#45;f3ff&#45;43be&#45;b23c&#45;43b6d9d1972a&#45;&gt;7ef64587&#45;30ed&#45;42f2&#45;bdee&#45;376c53d42ffc</title>
<path fill="none" stroke="black" d="M173.62,-544.92C158.83,-536.15 142.89,-523.61 134.62,-507.27 123,-484.27 120.19,-470.63 134.62,-449.28 145.48,-433.23 162.08,-422.04 179.89,-414.24"/>
<polygon fill="black" stroke="black" points="180.89,-417.2 188.87,-410.24 178.29,-410.71 180.89,-417.2"/>
</g>
<!-- 22b128ed&#45;58f4&#45;4a98&#45;8ceb&#45;cec0cd02f234 -->
<g id="node6" class="node">
<title>22b128ed&#45;58f4&#45;4a98&#45;8ceb&#45;cec0cd02f234</title>
<ellipse fill="none" stroke="black" cx="297.62" cy="-478.27" rx="153.97" ry="28.99"/>
<text text-anchor="middle" x="297.62" y="-481.47" font-family="Times,serif" font-size="14.00">constraints.generate_stash_constraint</text>
<text text-anchor="middle" x="297.62" y="-464.97" font-family="Times,serif" font-size="14.00">&lt;stash: m01s03i236&gt;</text>
</g>
<!-- 0ea71716&#45;f3ff&#45;43be&#45;b23c&#45;43b6d9d1972a&#45;&gt;22b128ed&#45;58f4&#45;4a98&#45;8ceb&#45;cec0cd02f234 -->
<g id="edge5" class="edge">
<title>0ea71716&#45;f3ff&#45;43be&#45;b23c&#45;43b6d9d1972a&#45;&gt;22b128ed&#45;58f4&#45;4a98&#45;8ceb&#45;cec0cd02f234</title>
<path fill="none" stroke="black" d="M225.48,-543.48C235.03,-534.98 247,-524.33 258.43,-514.16"/>
<polygon fill="black" stroke="black" points="260.47,-517.14 265.61,-507.87 255.82,-511.91 260.47,-517.14"/>
</g>
<!-- d97c190b&#45;70ba&#45;4c2b&#45;a01b&#45;4a89c9d8dec2 -->
<g id="node7" class="node">
<title>d97c190b&#45;70ba&#45;4c2b&#45;a01b&#45;4a89c9d8dec2</title>
<ellipse fill="none" stroke="black" cx="655.62" cy="-478.27" rx="186.32" ry="28.99"/>
<text text-anchor="middle" x="655.62" y="-481.47" font-family="Times,serif" font-size="14.00">constraints.generate_cell_methods_constraint</text>
<text text-anchor="middle" x="655.62" y="-464.97" font-family="Times,serif" font-size="14.00">&lt;cell_methods: []&gt;</text>
</g>
<!-- 0ea71716&#45;f3ff&#45;43be&#45;b23c&#45;43b6d9d1972a&#45;&gt;d97c190b&#45;70ba&#45;4c2b&#45;a01b&#45;4a89c9d8dec2 -->
<g id="edge6" class="edge">
<title>0ea71716&#45;f3ff&#45;43be&#45;b23c&#45;43b6d9d1972a&#45;&gt;d97c190b&#45;70ba&#45;4c2b&#45;a01b&#45;4a89c9d8dec2</title>
<path fill="none" stroke="black" d="M263.04,-550.09C328.38,-538.3 438.18,-518.5 525.07,-502.82"/>
<polygon fill="black" stroke="black" points="525.59,-506.11 534.81,-500.89 524.35,-499.22 525.59,-506.11"/>
</g>
<!-- START -->
<g id="node2" class="node">
<title>START</title>
<ellipse fill="none" stroke="black" cx="206.62" cy="-727.25" rx="40.09" ry="18"/>
<text text-anchor="middle" x="206.62" y="-722.2" font-family="Times,serif" font-size="14.00">START</text>
</g>
<!-- START&#45;&gt;0ea71716&#45;f3ff&#45;43be&#45;b23c&#45;43b6d9d1972a -->
<g id="edge1" class="edge">
<title>START&#45;&gt;0ea71716&#45;f3ff&#45;43be&#45;b23c&#45;43b6d9d1972a</title>
<path fill="none" stroke="black" d="M178.82,-713.86C162.72,-705.05 143.87,-691.53 134.62,-673.25 123,-650.25 123,-638.26 134.62,-615.27 141.21,-602.24 152.67,-591.63 164.54,-583.43"/>
<polygon fill="black" stroke="black" points="166.08,-585.95 172.62,-577.62 162.31,-580.06 166.08,-585.95"/>
</g>
<!-- b6d3536a&#45;27d8&#45;4882&#45;b103&#45;709c18c3eb49 -->
<g id="node3" class="node">
<title>b6d3536a&#45;27d8&#45;4882&#45;b103&#45;709c18c3eb49</title>
<ellipse fill="none" stroke="black" cx="297.62" cy="-644.26" rx="153.97" ry="28.99"/>
<text text-anchor="middle" x="297.62" y="-647.46" font-family="Times,serif" font-size="14.00">constraints.generate_stash_constraint</text>
<text text-anchor="middle" x="297.62" y="-630.96" font-family="Times,serif" font-size="14.00">&lt;stash: m01s03i236&gt;</text>
</g>
<!-- START&#45;&gt;b6d3536a&#45;27d8&#45;4882&#45;b103&#45;709c18c3eb49 -->
<g id="edge2" class="edge">
<title>START&#45;&gt;b6d3536a&#45;27d8&#45;4882&#45;b103&#45;709c18c3eb49</title>
<path fill="none" stroke="black" d="M224.17,-710.63C233.91,-701.97 246.43,-690.82 258.37,-680.2"/>
<polygon fill="black" stroke="black" points="260.36,-683.22 265.5,-673.96 255.7,-677.99 260.36,-683.22"/>
</g>
<!-- b6d3536a&#45;27d8&#45;4882&#45;b103&#45;709c18c3eb49&#45;&gt;0ea71716&#45;f3ff&#45;43be&#45;b23c&#45;43b6d9d1972a -->
<g id="edge7" class="edge">
<title>b6d3536a&#45;27d8&#45;4882&#45;b103&#45;709c18c3eb49&#45;&gt;0ea71716&#45;f3ff&#45;43be&#45;b23c&#45;43b6d9d1972a</title>
<path fill="none" stroke="black" d="M266.31,-615.38C255.7,-605.95 243.96,-595.49 233.71,-586.37"/>
<polygon fill="black" stroke="black" points="236.31,-584.11 226.51,-580.08 231.66,-589.34 236.31,-584.11"/>
</g>
<!-- e1451adc&#45;5e2a&#45;46d6&#45;8950&#45;2e2fa1f0c364 -->
<g id="node8" class="node">
<title>e1451adc&#45;5e2a&#45;46d6&#45;8950&#45;2e2fa1f0c364</title>
<ellipse fill="none" stroke="black" cx="156.62" cy="-228.62" rx="86.09" ry="40.66"/>
<text text-anchor="middle" x="156.62" y="-240.07" font-family="Times,serif" font-size="14.00">collapse.collapse</text>
<text text-anchor="middle" x="156.62" y="-223.57" font-family="Times,serif" font-size="14.00">&lt;coordinate: time&gt;</text>
<text text-anchor="middle" x="156.62" y="-207.07" font-family="Times,serif" font-size="14.00">&lt;method: MEAN&gt;</text>
</g>
<!-- c1be712d&#45;e343&#45;4b0f&#45;956a&#45;7d2427a4c17d&#45;&gt;e1451adc&#45;5e2a&#45;46d6&#45;8950&#45;2e2fa1f0c364 -->
<g id="edge8" class="edge">
<title>c1be712d&#45;e343&#45;4b0f&#45;956a&#45;7d2427a4c17d&#45;&gt;e1451adc&#45;5e2a&#45;46d6&#45;8950&#45;2e2fa1f0c364</title>
<path fill="none" stroke="black" d="M156.62,-304.85C156.62,-297.77 156.62,-289.19 156.62,-280.4"/>
<polygon fill="black" stroke="black" points="160.12,-280.64 156.62,-270.64 153.12,-280.64 160.12,-280.64"/>
</g>
<!-- 7ef64587&#45;30ed&#45;42f2&#45;bdee&#45;376c53d42ffc&#45;&gt;c1be712d&#45;e343&#45;4b0f&#45;956a&#45;7d2427a4c17d -->
<g id="edge9" class="edge">
<title>7ef64587&#45;30ed&#45;42f2&#45;bdee&#45;376c53d42ffc&#45;&gt;c1be712d&#45;e343&#45;4b0f&#45;956a&#45;7d2427a4c17d</title>
<path fill="none" stroke="black" d="M240,-377.34C225.33,-368 206.95,-356.31 191.18,-346.27"/>
<polygon fill="black" stroke="black" points="193.57,-343.01 183.25,-340.59 189.81,-348.91 193.57,-343.01"/>
</g>
<!-- 22b128ed&#45;58f4&#45;4a98&#45;8ceb&#45;cec0cd02f234&#45;&gt;7ef64587&#45;30ed&#45;42f2&#45;bdee&#45;376c53d42ffc -->
<g id="edge10" class="edge">
<title>22b128ed&#45;58f4&#45;4a98&#45;8ceb&#45;cec0cd02f234&#45;&gt;7ef64587&#45;30ed&#45;42f2&#45;bdee&#45;376c53d42ffc</title>
<path fill="none" stroke="black" d="M286.78,-448.95C283.63,-440.7 280.18,-431.71 277.05,-423.53"/>
<polygon fill="black" stroke="black" points="280.01,-422.47 273.17,-414.38 273.47,-424.97 280.01,-422.47"/>
</g>
<!-- d97c190b&#45;70ba&#45;4c2b&#45;a01b&#45;4a89c9d8dec2&#45;&gt;7ef64587&#45;30ed&#45;42f2&#45;bdee&#45;376c53d42ffc -->
<g id="edge11" class="edge">
<title>d97c190b&#45;70ba&#45;4c2b&#45;a01b&#45;4a89c9d8dec2&#45;&gt;7ef64587&#45;30ed&#45;42f2&#45;bdee&#45;376c53d42ffc</title>
<path fill="none" stroke="black" d="M545.97,-454.44C482.72,-441.28 404.59,-425.01 347.05,-413.03"/>
<polygon fill="black" stroke="black" points="348.06,-409.45 337.56,-410.84 346.63,-416.31 348.06,-409.45"/>
</g>
<!-- 5f951fe0&#45;1b14&#45;4816&#45;87a4&#45;3faf03dd2eaa -->
<g id="node9" class="node">
<title>5f951fe0&#45;1b14&#45;4816&#45;87a4&#45;3faf03dd2eaa</title>
<ellipse fill="none" stroke="black" cx="156.62" cy="-122.97" rx="156.62" ry="28.99"/>
<text text-anchor="middle" x="156.62" y="-126.17" font-family="Times,serif" font-size="14.00">plot.spatial_contour_plot</text>
<text text-anchor="middle" x="156.62" y="-109.67" font-family="Times,serif" font-size="14.00">&lt;file_path: CSET_OUTPUT_PATH&gt;</text>
</g>
<!-- e1451adc&#45;5e2a&#45;46d6&#45;8950&#45;2e2fa1f0c364&#45;&gt;5f951fe0&#45;1b14&#45;4816&#45;87a4&#45;3faf03dd2eaa -->
<g id="edge12" class="edge">
<title>e1451adc&#45;5e2a&#45;46d6&#45;8950&#45;2e2fa1f0c364&#45;&gt;5f951fe0&#45;1b14&#45;4816&#45;87a4&#45;3faf03dd2eaa</title>
<path fill="none" stroke="black" d="M156.62,-187.55C156.62,-179.57 156.62,-171.21 156.62,-163.26"/>
<polygon fill="black" stroke="black" points="160.12,-163.38 156.62,-153.38 153.12,-163.38 160.12,-163.38"/>
</g>
<!-- 4f19f4e1&#45;9084&#45;4ed5&#45;82b4&#45;563c5ebf2251 -->
<g id="node10" class="node">
<title>4f19f4e1&#45;9084&#45;4ed5&#45;82b4&#45;563c5ebf2251</title>
<ellipse fill="none" stroke="black" cx="156.62" cy="-28.99" rx="156.62" ry="28.99"/>
<text text-anchor="middle" x="156.62" y="-32.19" font-family="Times,serif" font-size="14.00">write.write_cube_to_nc</text>
<text text-anchor="middle" x="156.62" y="-15.69" font-family="Times,serif" font-size="14.00">&lt;file_path: CSET_OUTPUT_PATH&gt;</text>
</g>
<!-- 5f951fe0&#45;1b14&#45;4816&#45;87a4&#45;3faf03dd2eaa&#45;&gt;4f19f4e1&#45;9084&#45;4ed5&#45;82b4&#45;563c5ebf2251 -->
<g id="edge13" class="edge">
<title>5f951fe0&#45;1b14&#45;4816&#45;87a4&#45;3faf03dd2eaa&#45;&gt;4f19f4e1&#45;9084&#45;4ed5&#45;82b4&#45;563c5ebf2251</title>
<path fill="none" stroke="black" d="M156.62,-93.63C156.62,-85.93 156.62,-77.46 156.62,-69.28"/>
<polygon fill="black" stroke="black" points="160.12,-69.4 156.62,-59.4 153.12,-69.4 160.12,-69.4"/>
</g>
</g>
</svg>
