<?xml version="1.0" encoding="UTF-8" standalone="no"?>
<!DOCTYPE svg PUBLIC "-//W3C//DTD SVG 1.1//EN"
 "http://www.w3.org/Graphics/SVG/1.1/DTD/svg11.dtd">
<!-- Generated by graphviz version 8.1.0 (20230707.2238)
 -->
<!-- Pages: 1 -->
<svg width="773pt" height="620pt"
 viewBox="0.00 0.00 773.37 620.00" xmlns="http://www.w3.org/2000/svg" xmlns:xlink="http://www.w3.org/1999/xlink">
<title>Graph visualisation of the a CSET recipe.</title>
<g id="graph0" class="graph" transform="scale(1 1) rotate(0) translate(4 616)">
<polygon fill="white" stroke="none" points="-4,4 -4,-616 769.37,-616 769.37,4 -4,4"/>
<!-- fc1ca1f4&#45;5d5c&#45;4e34&#45;bbeb&#45;632dd8572e4d -->
<g id="node1" class="node">
<title>fc1ca1f4&#45;5d5c&#45;4e34&#45;bbeb&#45;632dd8572e4d</title>
<ellipse fill="none" stroke="black" cx="150.56" cy="-450" rx="70.8" ry="18"/>
<text text-anchor="middle" x="150.56" y="-444.95" font-family="Times,serif" font-size="14.00">read.read_cubes</text>
</g>
<!-- e006203b&#45;b212&#45;45b8&#45;acb2&#45;d2aba3a91c18 -->
<g id="node4" class="node">
<title>e006203b&#45;b212&#45;45b8&#45;acb2&#45;d2aba3a91c18</title>
<ellipse fill="none" stroke="black" cx="103.56" cy="-234" rx="78.48" ry="18"/>
<text text-anchor="middle" x="103.56" y="-228.95" font-family="Times,serif" font-size="14.00">filters.filter_cubes</text>
</g>
<!-- fc1ca1f4&#45;5d5c&#45;4e34&#45;bbeb&#45;632dd8572e4d&#45;&gt;e006203b&#45;b212&#45;45b8&#45;acb2&#45;d2aba3a91c18 -->
<g id="edge3" class="edge">
<title>fc1ca1f4&#45;5d5c&#45;4e34&#45;bbeb&#45;632dd8572e4d&#45;&gt;e006203b&#45;b212&#45;45b8&#45;acb2&#45;d2aba3a91c18</title>
<path fill="none" stroke="black" d="M114.02,-434.17C97.93,-425.59 80.65,-413.05 71.56,-396 48.97,-353.65 58.68,-334.24 71.56,-288 74.17,-278.62 78.94,-269.25 84.01,-261.05"/>
<polygon fill="black" stroke="black" points="87.38,-263.3 89.99,-253.03 81.55,-259.43 87.38,-263.3"/>
</g>
<!-- 84e39446&#45;1511&#45;4779&#45;adc8&#45;c88fdcbf38d2 -->
<g id="node5" class="node">
<title>84e39446&#45;1511&#45;4779&#45;adc8&#45;c88fdcbf38d2</title>
<ellipse fill="none" stroke="black" cx="210.56" cy="-306" rx="130.17" ry="18"/>
<text text-anchor="middle" x="210.56" y="-300.95" font-family="Times,serif" font-size="14.00">constraints.combine_constraints</text>
</g>
<!-- fc1ca1f4&#45;5d5c&#45;4e34&#45;bbeb&#45;632dd8572e4d&#45;&gt;84e39446&#45;1511&#45;4779&#45;adc8&#45;c88fdcbf38d2 -->
<g id="edge4" class="edge">
<title>fc1ca1f4&#45;5d5c&#45;4e34&#45;bbeb&#45;632dd8572e4d&#45;&gt;84e39446&#45;1511&#45;4779&#45;adc8&#45;c88fdcbf38d2</title>
<path fill="none" stroke="black" d="M119.25,-433.56C104.97,-424.71 89.5,-412.12 81.56,-396 74.48,-381.65 72.65,-373.29 81.56,-360 92.25,-344.05 108.7,-332.89 126.31,-325.09"/>
<polygon fill="black" stroke="black" points="127.23,-328.09 135.18,-321.1 124.6,-321.61 127.23,-328.09"/>
</g>
<!-- e27f5b60&#45;93b9&#45;4ac8&#45;bc4e&#45;957547716f51 -->
<g id="node6" class="node">
<title>e27f5b60&#45;93b9&#45;4ac8&#45;bc4e&#45;957547716f51</title>
<ellipse fill="none" stroke="black" cx="239.56" cy="-378" rx="148.59" ry="18"/>
<text text-anchor="middle" x="239.56" y="-372.95" font-family="Times,serif" font-size="14.00">constraints.generate_stash_constraint</text>
</g>
<!-- fc1ca1f4&#45;5d5c&#45;4e34&#45;bbeb&#45;632dd8572e4d&#45;&gt;e27f5b60&#45;93b9&#45;4ac8&#45;bc4e&#45;957547716f51 -->
<g id="edge5" class="edge">
<title>fc1ca1f4&#45;5d5c&#45;4e34&#45;bbeb&#45;632dd8572e4d&#45;&gt;e27f5b60&#45;93b9&#45;4ac8&#45;bc4e&#45;957547716f51</title>
<path fill="none" stroke="black" d="M171.65,-432.41C182.82,-423.63 196.73,-412.68 209.06,-402.99"/>
<polygon fill="black" stroke="black" points="210.99,-405.13 216.69,-396.2 206.66,-399.63 210.99,-405.13"/>
</g>
<!-- 888067b4&#45;392d&#45;427b&#45;9f23&#45;172095516377 -->
<g id="node7" class="node">
<title>888067b4&#45;392d&#45;427b&#45;9f23&#45;172095516377</title>
<ellipse fill="none" stroke="black" cx="585.56" cy="-378" rx="179.82" ry="18"/>
<text text-anchor="middle" x="585.56" y="-372.95" font-family="Times,serif" font-size="14.00">constraints.generate_cell_methods_constraint</text>
</g>
<!-- fc1ca1f4&#45;5d5c&#45;4e34&#45;bbeb&#45;632dd8572e4d&#45;&gt;888067b4&#45;392d&#45;427b&#45;9f23&#45;172095516377 -->
<g id="edge6" class="edge">
<title>fc1ca1f4&#45;5d5c&#45;4e34&#45;bbeb&#45;632dd8572e4d&#45;&gt;888067b4&#45;392d&#45;427b&#45;9f23&#45;172095516377</title>
<path fill="none" stroke="black" d="M209.22,-439.56C279.17,-428.3 397.29,-409.3 482.57,-395.57"/>
<polygon fill="black" stroke="black" points="483.01,-398.89 492.32,-393.84 481.89,-391.98 483.01,-398.89"/>
</g>
<!-- START -->
<g id="node2" class="node">
<title>START</title>
<ellipse fill="none" stroke="black" cx="150.56" cy="-594" rx="40.09" ry="18"/>
<text text-anchor="middle" x="150.56" y="-588.95" font-family="Times,serif" font-size="14.00">START</text>
</g>
<!-- START&#45;&gt;fc1ca1f4&#45;5d5c&#45;4e34&#45;bbeb&#45;632dd8572e4d -->
<g id="edge1" class="edge">
<title>START&#45;&gt;fc1ca1f4&#45;5d5c&#45;4e34&#45;bbeb&#45;632dd8572e4d</title>
<path fill="none" stroke="black" d="M123.88,-580.33C108.44,-571.42 90.37,-557.88 81.56,-540 74.48,-525.65 74.48,-518.35 81.56,-504 87.83,-491.28 98.78,-480.76 110.14,-472.54"/>
<polygon fill="black" stroke="black" points="111.89,-474.91 118.25,-466.44 107.99,-469.09 111.89,-474.91"/>
</g>
<!-- f81b25eb&#45;5d0a&#45;4ece&#45;99bf&#45;65395ba60400 -->
<g id="node3" class="node">
<title>f81b25eb&#45;5d0a&#45;4ece&#45;99bf&#45;65395ba60400</title>
<ellipse fill="none" stroke="black" cx="239.56" cy="-522" rx="148.59" ry="18"/>
<text text-anchor="middle" x="239.56" y="-516.95" font-family="Times,serif" font-size="14.00">constraints.generate_stash_constraint</text>
</g>
<!-- START&#45;&gt;f81b25eb&#45;5d0a&#45;4ece&#45;99bf&#45;65395ba60400 -->
<g id="edge2" class="edge">
<title>START&#45;&gt;f81b25eb&#45;5d0a&#45;4ece&#45;99bf&#45;65395ba60400</title>
<path fill="none" stroke="black" d="M169.87,-577.81C181.44,-568.71 196.41,-556.94 209.5,-546.64"/>
<polygon fill="black" stroke="black" points="211.08,-549.06 216.78,-540.13 206.76,-543.56 211.08,-549.06"/>
</g>
<!-- f81b25eb&#45;5d0a&#45;4ece&#45;99bf&#45;65395ba60400&#45;&gt;fc1ca1f4&#45;5d5c&#45;4e34&#45;bbeb&#45;632dd8572e4d -->
<g id="edge7" class="edge">
<title>f81b25eb&#45;5d0a&#45;4ece&#45;99bf&#45;65395ba60400&#45;&gt;fc1ca1f4&#45;5d5c&#45;4e34&#45;bbeb&#45;632dd8572e4d</title>
<path fill="none" stroke="black" d="M218.01,-504.05C206.67,-495.13 192.59,-484.06 180.23,-474.34"/>
<polygon fill="black" stroke="black" points="182.62,-470.98 172.59,-467.55 178.29,-476.48 182.62,-470.98"/>
</g>
<!-- af2a4107&#45;d432&#45;454e&#45;8a71&#45;1cdb7cfdd464 -->
<g id="node8" class="node">
<title>af2a4107&#45;d432&#45;454e&#45;8a71&#45;1cdb7cfdd464</title>
<ellipse fill="none" stroke="black" cx="103.56" cy="-162" rx="73.87" ry="18"/>
<text text-anchor="middle" x="103.56" y="-156.95" font-family="Times,serif" font-size="14.00">collapse.collapse</text>
</g>
<!-- e006203b&#45;b212&#45;45b8&#45;acb2&#45;d2aba3a91c18&#45;&gt;af2a4107&#45;d432&#45;454e&#45;8a71&#45;1cdb7cfdd464 -->
<g id="edge8" class="edge">
<title>e006203b&#45;b212&#45;45b8&#45;acb2&#45;d2aba3a91c18&#45;&gt;af2a4107&#45;d432&#45;454e&#45;8a71&#45;1cdb7cfdd464</title>
<path fill="none" stroke="black" d="M103.56,-215.7C103.56,-208.24 103.56,-199.32 103.56,-190.97"/>
<polygon fill="black" stroke="black" points="107.06,-191.1 103.56,-181.1 100.06,-191.1 107.06,-191.1"/>
</g>
<!-- 84e39446&#45;1511&#45;4779&#45;adc8&#45;c88fdcbf38d2&#45;&gt;e006203b&#45;b212&#45;45b8&#45;acb2&#45;d2aba3a91c18 -->
<g id="edge9" class="edge">
<title>84e39446&#45;1511&#45;4779&#45;adc8&#45;c88fdcbf38d2&#45;&gt;e006203b&#45;b212&#45;45b8&#45;acb2&#45;d2aba3a91c18</title>
<path fill="none" stroke="black" d="M184.38,-287.88C170.34,-278.69 152.87,-267.26 137.77,-257.38"/>
<polygon fill="black" stroke="black" points="140.01,-254.01 129.72,-251.47 136.18,-259.87 140.01,-254.01"/>
</g>
<!-- e27f5b60&#45;93b9&#45;4ac8&#45;bc4e&#45;957547716f51&#45;&gt;84e39446&#45;1511&#45;4779&#45;adc8&#45;c88fdcbf38d2 -->
<g id="edge10" class="edge">
<title>e27f5b60&#45;93b9&#45;4ac8&#45;bc4e&#45;957547716f51&#45;&gt;84e39446&#45;1511&#45;4779&#45;adc8&#45;c88fdcbf38d2</title>
<path fill="none" stroke="black" d="M232.39,-359.7C229.19,-351.98 225.35,-342.71 221.79,-334.11"/>
<polygon fill="black" stroke="black" points="224.7,-333 217.64,-325.1 218.24,-335.68 224.7,-333"/>
</g>
<!-- 888067b4&#45;392d&#45;427b&#45;9f23&#45;172095516377&#45;&gt;84e39446&#45;1511&#45;4779&#45;adc8&#45;c88fdcbf38d2 -->
<g id="edge11" class="edge">
<title>888067b4&#45;392d&#45;427b&#45;9f23&#45;172095516377&#45;&gt;84e39446&#45;1511&#45;4779&#45;adc8&#45;c88fdcbf38d2</title>
<path fill="none" stroke="black" d="M503.26,-361.64C442.02,-350.21 358.63,-334.64 296.52,-323.05"/>
<polygon fill="black" stroke="black" points="297.44,-319.47 286.97,-321.08 296.15,-326.35 297.44,-319.47"/>
</g>
<!-- ff4975a6&#45;888d&#45;4ff2&#45;9254&#45;8d6e12e789c7 -->
<g id="node9" class="node">
<title>ff4975a6&#45;888d&#45;4ff2&#45;9254&#45;8d6e12e789c7</title>
<ellipse fill="none" stroke="black" cx="103.56" cy="-90" rx="103.56" ry="18"/>
<text text-anchor="middle" x="103.56" y="-84.95" font-family="Times,serif" font-size="14.00">plot.spatial_contour_plot</text>
</g>
<!-- af2a4107&#45;d432&#45;454e&#45;8a71&#45;1cdb7cfdd464&#45;&gt;ff4975a6&#45;888d&#45;4ff2&#45;9254&#45;8d6e12e789c7 -->
<g id="edge12" class="edge">
<title>af2a4107&#45;d432&#45;454e&#45;8a71&#45;1cdb7cfdd464&#45;&gt;ff4975a6&#45;888d&#45;4ff2&#45;9254&#45;8d6e12e789c7</title>
<path fill="none" stroke="black" d="M103.56,-143.7C103.56,-136.24 103.56,-127.32 103.56,-118.97"/>
<polygon fill="black" stroke="black" points="107.06,-119.1 103.56,-109.1 100.06,-119.1 107.06,-119.1"/>
</g>
<!-- 98b17d40&#45;2838&#45;4f13&#45;b5d1&#45;644f90f253a3 -->
<g id="node10" class="node">
<title>98b17d40&#45;2838&#45;4f13&#45;b5d1&#45;644f90f253a3</title>
<ellipse fill="none" stroke="black" cx="103.56" cy="-18" rx="98.44" ry="18"/>
<text text-anchor="middle" x="103.56" y="-12.95" font-family="Times,serif" font-size="14.00">write.write_cube_to_nc</text>
</g>
<!-- ff4975a6&#45;888d&#45;4ff2&#45;9254&#45;8d6e12e789c7&#45;&gt;98b17d40&#45;2838&#45;4f13&#45;b5d1&#45;644f90f253a3 -->
<g id="edge13" class="edge">
<title>ff4975a6&#45;888d&#45;4ff2&#45;9254&#45;8d6e12e789c7&#45;&gt;98b17d40&#45;2838&#45;4f13&#45;b5d1&#45;644f90f253a3</title>
<path fill="none" stroke="black" d="M103.56,-71.7C103.56,-64.24 103.56,-55.32 103.56,-46.97"/>
<polygon fill="black" stroke="black" points="107.06,-47.1 103.56,-37.1 100.06,-47.1 107.06,-47.1"/>
</g>
</g>
</svg>
