<?xml version="1.0" encoding="UTF-8" standalone="no"?>
<!DOCTYPE svg PUBLIC "-//W3C//DTD SVG 1.1//EN"
 "http://www.w3.org/Graphics/SVG/1.1/DTD/svg11.dtd">
<!-- Generated by graphviz version 12.0.0 (20240803.0821)
 -->
<!-- Pages: 1 -->
<svg width="798pt" height="542pt"
 viewBox="0.00 0.00 798.23 541.95" xmlns="http://www.w3.org/2000/svg" xmlns:xlink="http://www.w3.org/1999/xlink">
<g id="graph0" class="graph" transform="scale(1 1) rotate(0) translate(4 537.95)">
<polygon fill="white" stroke="none" points="-4,4 -4,-537.95 794.23,-537.95 794.23,4 -4,4"/>
<!-- 61b2e64b&#45;9e35&#45;49ee&#45;9200&#45;2f69705e8485 -->
<g id="node1" class="node">
<title>61b2e64b&#45;9e35&#45;49ee&#45;9200&#45;2f69705e8485</title>
<ellipse fill="none" stroke="black" cx="164.91" cy="-432.96" rx="109.96" ry="28.99"/>
<text text-anchor="middle" x="164.91" y="-436.16" font-family="Times,serif" font-size="14.00">read.read_cubes</text>
<text text-anchor="middle" x="164.91" y="-419.66" font-family="Times,serif" font-size="14.00">&lt;file_paths: /data/*.nc&gt;</text>
</g>
<!-- 409506e4&#45;ebd1&#45;4ba1&#45;bcc1&#45;7aa92d2720c7 -->
<g id="node3" class="node">
<title>409506e4&#45;ebd1&#45;4ba1&#45;bcc1&#45;7aa92d2720c7</title>
<ellipse fill="none" stroke="black" cx="118.91" cy="-183.98" rx="78.48" ry="18"/>
<text text-anchor="middle" x="118.91" y="-178.93" font-family="Times,serif" font-size="14.00">filters.filter_cubes</text>
</g>
<!-- 61b2e64b&#45;9e35&#45;49ee&#45;9200&#45;2f69705e8485&#45;&gt;409506e4&#45;ebd1&#45;4ba1&#45;bcc1&#45;7aa92d2720c7 -->
<g id="edge2" class="edge">
<title>61b2e64b&#45;9e35&#45;49ee&#45;9200&#45;2f69705e8485&#45;&gt;409506e4&#45;ebd1&#45;4ba1&#45;bcc1&#45;7aa92d2720c7</title>
<path fill="none" stroke="black" d="M118.33,-406.36C104.68,-396.32 91.41,-383.45 83.91,-367.97 80.13,-360.17 84.6,-242.34 85.91,-237.98 88.71,-228.69 93.59,-219.4 98.75,-211.27"/>
<polygon fill="black" stroke="black" points="101.48,-213.47 104.22,-203.24 95.7,-209.54 101.48,-213.47"/>
</g>
<!-- 7f9d1e48&#45;4605&#45;474c&#45;9ee2&#45;0ce468080dbb -->
<g id="node4" class="node">
<title>7f9d1e48&#45;4605&#45;474c&#45;9ee2&#45;0ce468080dbb</title>
<ellipse fill="none" stroke="black" cx="224.91" cy="-255.98" rx="130.17" ry="18"/>
<text text-anchor="middle" x="224.91" y="-250.93" font-family="Times,serif" font-size="14.00">constraints.combine_constraints</text>
</g>
<!-- 61b2e64b&#45;9e35&#45;49ee&#45;9200&#45;2f69705e8485&#45;&gt;7f9d1e48&#45;4605&#45;474c&#45;9ee2&#45;0ce468080dbb -->
<g id="edge3" class="edge">
<title>61b2e64b&#45;9e35&#45;49ee&#45;9200&#45;2f69705e8485&#45;&gt;7f9d1e48&#45;4605&#45;474c&#45;9ee2&#45;0ce468080dbb</title>
<path fill="none" stroke="black" d="M126.38,-405.58C114.65,-395.34 103.21,-382.55 96.91,-367.97 86.69,-344.31 82.59,-331.41 96.91,-309.98 107.41,-294.27 123.53,-283.21 140.82,-275.42"/>
<polygon fill="black" stroke="black" points="141.77,-278.82 149.7,-271.78 139.12,-272.34 141.77,-278.82"/>
</g>
<!-- 8fba8eff&#45;d474&#45;4913&#45;9457&#45;ae6b0383c968 -->
<g id="node5" class="node">
<title>8fba8eff&#45;d474&#45;4913&#45;9457&#45;ae6b0383c968</title>
<ellipse fill="none" stroke="black" cx="252.91" cy="-338.97" rx="147.08" ry="28.99"/>
<text text-anchor="middle" x="252.91" y="-342.17" font-family="Times,serif" font-size="14.00">constraints.generate_var_constraint</text>
<text text-anchor="middle" x="252.91" y="-325.67" font-family="Times,serif" font-size="14.00">&lt;varname: m01s03i236&gt;</text>
</g>
<!-- 61b2e64b&#45;9e35&#45;49ee&#45;9200&#45;2f69705e8485&#45;&gt;8fba8eff&#45;d474&#45;4913&#45;9457&#45;ae6b0383c968 -->
<g id="edge4" class="edge">
<title>61b2e64b&#45;9e35&#45;49ee&#45;9200&#45;2f69705e8485&#45;&gt;8fba8eff&#45;d474&#45;4913&#45;9457&#45;ae6b0383c968</title>
<path fill="none" stroke="black" d="M191.31,-404.36C199.85,-395.44 209.44,-385.41 218.47,-375.97"/>
<polygon fill="black" stroke="black" points="220.79,-378.61 225.18,-368.96 215.73,-373.77 220.79,-378.61"/>
</g>
<!-- 1c6346ce&#45;d3f5&#45;429c&#45;b892&#45;455afa0256ad -->
<g id="node6" class="node">
<title>1c6346ce&#45;d3f5&#45;429c&#45;b892&#45;455afa0256ad</title>
<ellipse fill="none" stroke="black" cx="603.91" cy="-338.97" rx="186.32" ry="28.99"/>
<text text-anchor="middle" x="603.91" y="-342.17" font-family="Times,serif" font-size="14.00">constraints.generate_cell_methods_constraint</text>
<text text-anchor="middle" x="603.91" y="-325.67" font-family="Times,serif" font-size="14.00">&lt;cell_methods: []&gt;</text>
</g>
<!-- 61b2e64b&#45;9e35&#45;49ee&#45;9200&#45;2f69705e8485&#45;&gt;1c6346ce&#45;d3f5&#45;429c&#45;b892&#45;455afa0256ad -->
<g id="edge5" class="edge">
<title>61b2e64b&#45;9e35&#45;49ee&#45;9200&#45;2f69705e8485&#45;&gt;1c6346ce&#45;d3f5&#45;429c&#45;b892&#45;455afa0256ad</title>
<path fill="none" stroke="black" d="M249.81,-414.17C316.2,-400.26 409.33,-380.74 483.42,-365.22"/>
<polygon fill="black" stroke="black" points="484.12,-368.65 493.19,-363.17 482.69,-361.8 484.12,-368.65"/>
</g>
<!-- START -->
<g id="node2" class="node">
<title>START</title>
<ellipse fill="none" stroke="black" cx="164.91" cy="-515.95" rx="40.09" ry="18"/>
<text text-anchor="middle" x="164.91" y="-510.9" font-family="Times,serif" font-size="14.00">START</text>
</g>
<!-- START&#45;&gt;61b2e64b&#45;9e35&#45;49ee&#45;9200&#45;2f69705e8485 -->
<g id="edge1" class="edge">
<title>START&#45;&gt;61b2e64b&#45;9e35&#45;49ee&#45;9200&#45;2f69705e8485</title>
<path fill="none" stroke="black" d="M164.91,-497.77C164.91,-490.69 164.91,-482.15 164.91,-473.67"/>
<polygon fill="black" stroke="black" points="168.41,-473.78 164.91,-463.78 161.41,-473.78 168.41,-473.78"/>
</g>
<!-- a5185878&#45;23bc&#45;4a6d&#45;b7b8&#45;fe0938e8287f -->
<g id="node7" class="node">
<title>a5185878&#45;23bc&#45;4a6d&#45;b7b8&#45;fe0938e8287f</title>
<ellipse fill="none" stroke="black" cx="118.91" cy="-111.98" rx="118.91" ry="18"/>
<text text-anchor="middle" x="118.91" y="-106.93" font-family="Times,serif" font-size="14.00">plot.spatial_pcolormesh_plot</text>
</g>
<!-- 409506e4&#45;ebd1&#45;4ba1&#45;bcc1&#45;7aa92d2720c7&#45;&gt;a5185878&#45;23bc&#45;4a6d&#45;b7b8&#45;fe0938e8287f -->
<g id="edge6" class="edge">
<title>409506e4&#45;ebd1&#45;4ba1&#45;bcc1&#45;7aa92d2720c7&#45;&gt;a5185878&#45;23bc&#45;4a6d&#45;b7b8&#45;fe0938e8287f</title>
<path fill="none" stroke="black" d="M118.91,-165.68C118.91,-158.39 118.91,-149.71 118.91,-141.52"/>
<polygon fill="black" stroke="black" points="122.41,-141.6 118.91,-131.6 115.41,-141.6 122.41,-141.6"/>
</g>
<!-- 7f9d1e48&#45;4605&#45;474c&#45;9ee2&#45;0ce468080dbb&#45;&gt;409506e4&#45;ebd1&#45;4ba1&#45;bcc1&#45;7aa92d2720c7 -->
<g id="edge7" class="edge">
<title>7f9d1e48&#45;4605&#45;474c&#45;9ee2&#45;0ce468080dbb&#45;&gt;409506e4&#45;ebd1&#45;4ba1&#45;bcc1&#45;7aa92d2720c7</title>
<path fill="none" stroke="black" d="M198.98,-237.86C185.2,-228.76 168.09,-217.46 153.23,-207.65"/>
<polygon fill="black" stroke="black" points="155.38,-204.87 145.11,-202.28 151.52,-210.71 155.38,-204.87"/>
</g>
<!-- 8fba8eff&#45;d474&#45;4913&#45;9457&#45;ae6b0383c968&#45;&gt;7f9d1e48&#45;4605&#45;474c&#45;9ee2&#45;0ce468080dbb -->
<g id="edge8" class="edge">
<title>8fba8eff&#45;d474&#45;4913&#45;9457&#45;ae6b0383c968&#45;&gt;7f9d1e48&#45;4605&#45;474c&#45;9ee2&#45;0ce468080dbb</title>
<path fill="none" stroke="black" d="M243.12,-309.65C240.33,-301.59 237.3,-292.82 234.52,-284.79"/>
<polygon fill="black" stroke="black" points="237.89,-283.82 231.31,-275.51 231.27,-286.1 237.89,-283.82"/>
</g>
<!-- 1c6346ce&#45;d3f5&#45;429c&#45;b892&#45;455afa0256ad&#45;&gt;7f9d1e48&#45;4605&#45;474c&#45;9ee2&#45;0ce468080dbb -->
<g id="edge9" class="edge">
<title>1c6346ce&#45;d3f5&#45;429c&#45;b892&#45;455afa0256ad&#45;&gt;7f9d1e48&#45;4605&#45;474c&#45;9ee2&#45;0ce468080dbb</title>
<path fill="none" stroke="black" d="M496.06,-314.93C435.16,-301.91 360.35,-285.92 304.74,-274.04"/>
<polygon fill="black" stroke="black" points="305.52,-270.63 295.01,-271.96 304.06,-277.48 305.52,-270.63"/>
</g>
<!-- d044b826&#45;16ab&#45;4caa&#45;8143&#45;ce633218e124 -->
<g id="node8" class="node">
<title>d044b826&#45;16ab&#45;4caa&#45;8143&#45;ce633218e124</title>
<ellipse fill="none" stroke="black" cx="118.91" cy="-28.99" rx="102" ry="28.99"/>
<text text-anchor="middle" x="118.91" y="-32.19" font-family="Times,serif" font-size="14.00">write.write_cube_to_nc</text>
<text text-anchor="middle" x="118.91" y="-15.69" font-family="Times,serif" font-size="14.00">&lt;overwrite: True&gt;</text>
</g>
<!-- a5185878&#45;23bc&#45;4a6d&#45;b7b8&#45;fe0938e8287f&#45;&gt;d044b826&#45;16ab&#45;4caa&#45;8143&#45;ce633218e124 -->
<g id="edge10" class="edge">
<title>a5185878&#45;23bc&#45;4a6d&#45;b7b8&#45;fe0938e8287f&#45;&gt;d044b826&#45;16ab&#45;4caa&#45;8143&#45;ce633218e124</title>
<path fill="none" stroke="black" d="M118.91,-93.81C118.91,-86.72 118.91,-78.19 118.91,-69.7"/>
<polygon fill="black" stroke="black" points="122.41,-69.81 118.91,-59.81 115.41,-69.81 122.41,-69.81"/>
</g>
</g>
</svg>
