<?xml version="1.0" encoding="UTF-8" standalone="no"?>
<!DOCTYPE svg PUBLIC "-//W3C//DTD SVG 1.1//EN"
 "http://www.w3.org/Graphics/SVG/1.1/DTD/svg11.dtd">
<!-- Generated by graphviz version 13.1.1 (20250720.1534)
 -->
<!-- Pages: 1 -->
<svg width="1401pt" height="548pt"
 viewBox="0.00 0.00 1401.00 548.00" xmlns="http://www.w3.org/2000/svg" xmlns:xlink="http://www.w3.org/1999/xlink">
<g id="graph0" class="graph" transform="scale(1 1) rotate(0) translate(4 544)">
<polygon fill="white" stroke="none" points="-4,4 -4,-544 1396.9,-544 1396.9,4 -4,4"/>
<!-- 92e2f150&#45;06d2&#45;4d88&#45;b520&#45;11fba3de4b0c -->
<g id="node1" class="node">
<title>92e2f150&#45;06d2&#45;4d88&#45;b520&#45;11fba3de4b0c</title>
<ellipse fill="none" stroke="black" cx="154.33" cy="-306" rx="93.3" ry="18"/>
<text xml:space="preserve" text-anchor="middle" x="154.33" y="-301.32" font-family="Times,serif" font-size="14.00">read.read_cubes</text>
</g>
<!-- f5862ee0&#45;00a6&#45;4998&#45;a5ce&#45;95280600fe0e -->
<g id="node7" class="node">
<title>f5862ee0&#45;00a6&#45;4998&#45;a5ce&#45;95280600fe0e</title>
<ellipse fill="none" stroke="black" cx="154.33" cy="-234" rx="87.51" ry="18"/>
<text xml:space="preserve" text-anchor="middle" x="154.33" y="-229.32" font-family="Times,serif" font-size="14.00">misc.difference</text>
</g>
<!-- 92e2f150&#45;06d2&#45;4d88&#45;b520&#45;11fba3de4b0c&#45;&gt;f5862ee0&#45;00a6&#45;4998&#45;a5ce&#45;95280600fe0e -->
<g id="edge6" class="edge">
<title>92e2f150&#45;06d2&#45;4d88&#45;b520&#45;11fba3de4b0c&#45;&gt;f5862ee0&#45;00a6&#45;4998&#45;a5ce&#45;95280600fe0e</title>
<path fill="none" stroke="black" d="M154.33,-287.7C154.33,-280.41 154.33,-271.73 154.33,-263.54"/>
<polygon fill="black" stroke="black" points="157.83,-263.62 154.33,-253.62 150.83,-263.62 157.83,-263.62"/>
</g>
<!-- START -->
<g id="node2" class="node">
<title>START</title>
<ellipse fill="none" stroke="black" cx="283.33" cy="-522" rx="44.37" ry="18"/>
<text xml:space="preserve" text-anchor="middle" x="283.33" y="-517.33" font-family="Times,serif" font-size="14.00">START</text>
</g>
<!-- START&#45;&gt;92e2f150&#45;06d2&#45;4d88&#45;b520&#45;11fba3de4b0c -->
<g id="edge1" class="edge">
<title>START&#45;&gt;92e2f150&#45;06d2&#45;4d88&#45;b520&#45;11fba3de4b0c</title>
<path fill="none" stroke="black" d="M240.73,-516.59C184.51,-509.8 90.2,-494.68 69.33,-468 34.97,-424.1 88.29,-364.28 124.79,-331.3"/>
<polygon fill="black" stroke="black" points="126.86,-334.15 132.06,-324.91 122.24,-328.89 126.86,-334.15"/>
</g>
<!-- d8fff3df&#45;c2a1&#45;4cdd&#45;846f&#45;fdf6270ebefc -->
<g id="node3" class="node">
<title>d8fff3df&#45;c2a1&#45;4cdd&#45;846f&#45;fdf6270ebefc</title>
<ellipse fill="none" stroke="black" cx="283.33" cy="-378" rx="173.79" ry="18"/>
<text xml:space="preserve" text-anchor="middle" x="283.33" y="-373.32" font-family="Times,serif" font-size="14.00">constraints.combine_constraints</text>
</g>
<!-- START&#45;&gt;d8fff3df&#45;c2a1&#45;4cdd&#45;846f&#45;fdf6270ebefc -->
<g id="edge2" class="edge">
<title>START&#45;&gt;d8fff3df&#45;c2a1&#45;4cdd&#45;846f&#45;fdf6270ebefc</title>
<path fill="none" stroke="black" d="M239.9,-517.61C168.49,-510.36 38.36,-489.06 82.33,-432 94.51,-416.19 133.69,-404.15 174.26,-395.57"/>
<polygon fill="black" stroke="black" points="174.85,-399.02 183.95,-393.6 173.45,-392.16 174.85,-399.02"/>
</g>
<!-- ad51c29e&#45;3f5d&#45;4d7e&#45;9b83&#45;45e04089ed33 -->
<g id="node4" class="node">
<title>ad51c29e&#45;3f5d&#45;4d7e&#45;9b83&#45;45e04089ed33</title>
<ellipse fill="none" stroke="black" cx="283.33" cy="-450" rx="192.21" ry="18"/>
<text xml:space="preserve" text-anchor="middle" x="283.33" y="-445.32" font-family="Times,serif" font-size="14.00">constraints.generate_var_constraint</text>
</g>
<!-- START&#45;&gt;ad51c29e&#45;3f5d&#45;4d7e&#45;9b83&#45;45e04089ed33 -->
<g id="edge3" class="edge">
<title>START&#45;&gt;ad51c29e&#45;3f5d&#45;4d7e&#45;9b83&#45;45e04089ed33</title>
<path fill="none" stroke="black" d="M283.33,-503.7C283.33,-496.41 283.33,-487.73 283.33,-479.54"/>
<polygon fill="black" stroke="black" points="286.83,-479.62 283.33,-469.62 279.83,-479.62 286.83,-479.62"/>
</g>
<!-- 2bda8279&#45;462b&#45;431b&#45;a7c2&#45;957fef7b9d28 -->
<g id="node5" class="node">
<title>2bda8279&#45;462b&#45;431b&#45;a7c2&#45;957fef7b9d28</title>
<ellipse fill="none" stroke="black" cx="734.33" cy="-450" rx="241.13" ry="18"/>
<text xml:space="preserve" text-anchor="middle" x="734.33" y="-445.32" font-family="Times,serif" font-size="14.00">constraints.generate_cell_methods_constraint</text>
</g>
<!-- START&#45;&gt;2bda8279&#45;462b&#45;431b&#45;a7c2&#45;957fef7b9d28 -->
<g id="edge4" class="edge">
<title>START&#45;&gt;2bda8279&#45;462b&#45;431b&#45;a7c2&#45;957fef7b9d28</title>
<path fill="none" stroke="black" d="M324.14,-514.66C390.68,-504.34 524.79,-483.52 621.58,-468.5"/>
<polygon fill="black" stroke="black" points="622.06,-471.97 631.4,-466.97 620.99,-465.05 622.06,-471.97"/>
</g>
<!-- 1d0eb8ad&#45;6316&#45;4383&#45;ad3e&#45;8d03c8c5e15c -->
<g id="node6" class="node">
<title>1d0eb8ad&#45;6316&#45;4383&#45;ad3e&#45;8d03c8c5e15c</title>
<ellipse fill="none" stroke="black" cx="1193.33" cy="-450" rx="199.57" ry="18"/>
<text xml:space="preserve" text-anchor="middle" x="1193.33" y="-445.32" font-family="Times,serif" font-size="14.00">constraints.generate_level_constraint</text>
</g>
<!-- START&#45;&gt;1d0eb8ad&#45;6316&#45;4383&#45;ad3e&#45;8d03c8c5e15c -->
<g id="edge5" class="edge">
<title>START&#45;&gt;1d0eb8ad&#45;6316&#45;4383&#45;ad3e&#45;8d03c8c5e15c</title>
<path fill="none" stroke="black" d="M326.81,-517.8C436.89,-509.68 735.5,-487.53 984.33,-468 1001.76,-466.63 1020.01,-465.18 1038.15,-463.72"/>
<polygon fill="black" stroke="black" points="1038.23,-467.23 1047.92,-462.93 1037.67,-460.25 1038.23,-467.23"/>
</g>
<!-- d8fff3df&#45;c2a1&#45;4cdd&#45;846f&#45;fdf6270ebefc&#45;&gt;92e2f150&#45;06d2&#45;4d88&#45;b520&#45;11fba3de4b0c -->
<g id="edge7" class="edge">
<title>d8fff3df&#45;c2a1&#45;4cdd&#45;846f&#45;fdf6270ebefc&#45;&gt;92e2f150&#45;06d2&#45;4d88&#45;b520&#45;11fba3de4b0c</title>
<path fill="none" stroke="black" d="M251.77,-359.88C234.52,-350.52 212.99,-338.83 194.55,-328.83"/>
<polygon fill="black" stroke="black" points="196.46,-325.88 186,-324.19 193.12,-332.03 196.46,-325.88"/>
</g>
<!-- ad51c29e&#45;3f5d&#45;4d7e&#45;9b83&#45;45e04089ed33&#45;&gt;d8fff3df&#45;c2a1&#45;4cdd&#45;846f&#45;fdf6270ebefc -->
<g id="edge8" class="edge">
<title>ad51c29e&#45;3f5d&#45;4d7e&#45;9b83&#45;45e04089ed33&#45;&gt;d8fff3df&#45;c2a1&#45;4cdd&#45;846f&#45;fdf6270ebefc</title>
<path fill="none" stroke="black" d="M283.33,-431.7C283.33,-424.41 283.33,-415.73 283.33,-407.54"/>
<polygon fill="black" stroke="black" points="286.83,-407.62 283.33,-397.62 279.83,-407.62 286.83,-407.62"/>
</g>
<!-- 2bda8279&#45;462b&#45;431b&#45;a7c2&#45;957fef7b9d28&#45;&gt;d8fff3df&#45;c2a1&#45;4cdd&#45;846f&#45;fdf6270ebefc -->
<g id="edge9" class="edge">
<title>2bda8279&#45;462b&#45;431b&#45;a7c2&#45;957fef7b9d28&#45;&gt;d8fff3df&#45;c2a1&#45;4cdd&#45;846f&#45;fdf6270ebefc</title>
<path fill="none" stroke="black" d="M632.83,-433.25C559.95,-421.93 461.98,-406.73 388.31,-395.29"/>
<polygon fill="black" stroke="black" points="389.07,-391.87 378.66,-393.8 388,-398.79 389.07,-391.87"/>
</g>
<!-- 1d0eb8ad&#45;6316&#45;4383&#45;ad3e&#45;8d03c8c5e15c&#45;&gt;d8fff3df&#45;c2a1&#45;4cdd&#45;846f&#45;fdf6270ebefc -->
<g id="edge10" class="edge">
<title>1d0eb8ad&#45;6316&#45;4383&#45;ad3e&#45;8d03c8c5e15c&#45;&gt;d8fff3df&#45;c2a1&#45;4cdd&#45;846f&#45;fdf6270ebefc</title>
<path fill="none" stroke="black" d="M1049.43,-437.19C1027.62,-435.43 1005.38,-433.65 984.33,-432 794.19,-417.08 574.97,-400.63 433.03,-390.07"/>
<polygon fill="black" stroke="black" points="433.41,-386.59 423.18,-389.34 432.89,-393.57 433.41,-386.59"/>
</g>
<!-- 63c46239&#45;4bb6&#45;4397&#45;947c&#45;0039ccb70a7b -->
<g id="node8" class="node">
<title>63c46239&#45;4bb6&#45;4397&#45;947c&#45;0039ccb70a7b</title>
<ellipse fill="none" stroke="black" cx="154.33" cy="-162" rx="95.4" ry="18"/>
<text xml:space="preserve" text-anchor="middle" x="154.33" y="-157.32" font-family="Times,serif" font-size="14.00">collapse.collapse</text>
</g>
<!-- f5862ee0&#45;00a6&#45;4998&#45;a5ce&#45;95280600fe0e&#45;&gt;63c46239&#45;4bb6&#45;4397&#45;947c&#45;0039ccb70a7b -->
<g id="edge11" class="edge">
<title>f5862ee0&#45;00a6&#45;4998&#45;a5ce&#45;95280600fe0e&#45;&gt;63c46239&#45;4bb6&#45;4397&#45;947c&#45;0039ccb70a7b</title>
<path fill="none" stroke="black" d="M154.33,-215.7C154.33,-208.41 154.33,-199.73 154.33,-191.54"/>
<polygon fill="black" stroke="black" points="157.83,-191.62 154.33,-181.62 150.83,-191.62 157.83,-191.62"/>
</g>
<!-- ce0801f3&#45;bad8&#45;4434&#45;8427&#45;cfdc47ad2d08 -->
<g id="node9" class="node">
<title>ce0801f3&#45;bad8&#45;4434&#45;8427&#45;cfdc47ad2d08</title>
<ellipse fill="none" stroke="black" cx="154.33" cy="-90" rx="154.33" ry="18"/>
<text xml:space="preserve" text-anchor="middle" x="154.33" y="-85.33" font-family="Times,serif" font-size="14.00">plot.spatial_pcolormesh_plot</text>
</g>
<!-- 63c46239&#45;4bb6&#45;4397&#45;947c&#45;0039ccb70a7b&#45;&gt;ce0801f3&#45;bad8&#45;4434&#45;8427&#45;cfdc47ad2d08 -->
<g id="edge12" class="edge">
<title>63c46239&#45;4bb6&#45;4397&#45;947c&#45;0039ccb70a7b&#45;&gt;ce0801f3&#45;bad8&#45;4434&#45;8427&#45;cfdc47ad2d08</title>
<path fill="none" stroke="black" d="M154.33,-143.7C154.33,-136.41 154.33,-127.73 154.33,-119.54"/>
<polygon fill="black" stroke="black" points="157.83,-119.62 154.33,-109.62 150.83,-119.62 157.83,-119.62"/>
</g>
<!-- b372a3e5&#45;99a0&#45;4373&#45;a9d9&#45;f003ee40d6ab -->
<g id="node10" class="node">
<title>b372a3e5&#45;99a0&#45;4373&#45;a9d9&#45;f003ee40d6ab</title>
<ellipse fill="none" stroke="black" cx="154.33" cy="-18" rx="126.44" ry="18"/>
<text xml:space="preserve" text-anchor="middle" x="154.33" y="-13.32" font-family="Times,serif" font-size="14.00">write.write_cube_to_nc</text>
</g>
<!-- ce0801f3&#45;bad8&#45;4434&#45;8427&#45;cfdc47ad2d08&#45;&gt;b372a3e5&#45;99a0&#45;4373&#45;a9d9&#45;f003ee40d6ab -->
<g id="edge13" class="edge">
<title>ce0801f3&#45;bad8&#45;4434&#45;8427&#45;cfdc47ad2d08&#45;&gt;b372a3e5&#45;99a0&#45;4373&#45;a9d9&#45;f003ee40d6ab</title>
<path fill="none" stroke="black" d="M154.33,-71.7C154.33,-64.41 154.33,-55.73 154.33,-47.54"/>
<polygon fill="black" stroke="black" points="157.83,-47.62 154.33,-37.62 150.83,-47.62 157.83,-47.62"/>
</g>
</g>
</svg>
